<mxfile host="app.diagrams.net" modified="2023-02-06T12:48:48.188Z" agent="5.0 (Windows NT 10.0; Win64; x64) AppleWebKit/537.36 (KHTML, like Gecko) Chrome/109.0.0.0 Safari/537.36" etag="DC87ZJV0keYFq7LSyJIP" version="20.8.16" type="github">
  <diagram id="C5RBs43oDa-KdzZeNtuy" name="Page-1">
    <mxGraphModel dx="1345" dy="756" grid="1" gridSize="10" guides="1" tooltips="1" connect="1" arrows="1" fold="1" page="1" pageScale="1" pageWidth="827" pageHeight="1169" math="0" shadow="0">
      <root>
        <mxCell id="WIyWlLk6GJQsqaUBKTNV-0" />
        <mxCell id="WIyWlLk6GJQsqaUBKTNV-1" parent="WIyWlLk6GJQsqaUBKTNV-0" />
        <mxCell id="qBNeZzoZ65NPLC_zQhQ4-33" style="edgeStyle=orthogonalEdgeStyle;rounded=0;orthogonalLoop=1;jettySize=auto;html=1;exitX=0.5;exitY=0;exitDx=0;exitDy=0;entryX=0.468;entryY=1;entryDx=0;entryDy=0;entryPerimeter=0;strokeWidth=1;startArrow=none;startFill=0;endArrow=diamondThin;endFill=0;endSize=18;" edge="1" parent="WIyWlLk6GJQsqaUBKTNV-1" source="qBNeZzoZ65NPLC_zQhQ4-0" target="qBNeZzoZ65NPLC_zQhQ4-31">
          <mxGeometry relative="1" as="geometry" />
        </mxCell>
        <mxCell id="qBNeZzoZ65NPLC_zQhQ4-0" value="Episode" style="swimlane;fontStyle=1;align=center;verticalAlign=top;childLayout=stackLayout;horizontal=1;startSize=26;horizontalStack=0;resizeParent=1;resizeParentMax=0;resizeLast=0;collapsible=1;marginBottom=0;" vertex="1" parent="WIyWlLk6GJQsqaUBKTNV-1">
          <mxGeometry x="100" y="450" width="160" height="130" as="geometry" />
        </mxCell>
        <mxCell id="qBNeZzoZ65NPLC_zQhQ4-1" value="- tittel: String" style="text;strokeColor=none;fillColor=none;align=left;verticalAlign=top;spacingLeft=4;spacingRight=4;overflow=hidden;rotatable=0;points=[[0,0.5],[1,0.5]];portConstraint=eastwest;" vertex="1" parent="qBNeZzoZ65NPLC_zQhQ4-0">
          <mxGeometry y="26" width="160" height="26" as="geometry" />
        </mxCell>
        <mxCell id="qBNeZzoZ65NPLC_zQhQ4-4" value="- episodeNr: int" style="text;strokeColor=none;fillColor=none;align=left;verticalAlign=top;spacingLeft=4;spacingRight=4;overflow=hidden;rotatable=0;points=[[0,0.5],[1,0.5]];portConstraint=eastwest;" vertex="1" parent="qBNeZzoZ65NPLC_zQhQ4-0">
          <mxGeometry y="52" width="160" height="26" as="geometry" />
        </mxCell>
        <mxCell id="qBNeZzoZ65NPLC_zQhQ4-7" value="- item: sesongNr: int" style="text;strokeColor=none;fillColor=none;align=left;verticalAlign=top;spacingLeft=4;spacingRight=4;overflow=hidden;rotatable=0;points=[[0,0.5],[1,0.5]];portConstraint=eastwest;" vertex="1" parent="qBNeZzoZ65NPLC_zQhQ4-0">
          <mxGeometry y="78" width="160" height="26" as="geometry" />
        </mxCell>
        <mxCell id="qBNeZzoZ65NPLC_zQhQ4-8" value="- spilletid: int" style="text;strokeColor=none;fillColor=none;align=left;verticalAlign=top;spacingLeft=4;spacingRight=4;overflow=hidden;rotatable=0;points=[[0,0.5],[1,0.5]];portConstraint=eastwest;" vertex="1" parent="qBNeZzoZ65NPLC_zQhQ4-0">
          <mxGeometry y="104" width="160" height="26" as="geometry" />
        </mxCell>
        <mxCell id="qBNeZzoZ65NPLC_zQhQ4-9" value="TVSerie" style="swimlane;fontStyle=1;align=center;verticalAlign=top;childLayout=stackLayout;horizontal=1;startSize=26;horizontalStack=0;resizeParent=1;resizeParentMax=0;resizeLast=0;collapsible=1;marginBottom=0;" vertex="1" parent="WIyWlLk6GJQsqaUBKTNV-1">
          <mxGeometry x="50" y="80" width="310" height="266" as="geometry" />
        </mxCell>
        <mxCell id="qBNeZzoZ65NPLC_zQhQ4-10" value="- tittel: String" style="text;strokeColor=none;fillColor=none;align=left;verticalAlign=top;spacingLeft=4;spacingRight=4;overflow=hidden;rotatable=0;points=[[0,0.5],[1,0.5]];portConstraint=eastwest;" vertex="1" parent="qBNeZzoZ65NPLC_zQhQ4-9">
          <mxGeometry y="26" width="310" height="26" as="geometry" />
        </mxCell>
        <mxCell id="qBNeZzoZ65NPLC_zQhQ4-13" value="- beskrivelse: StringÂ " style="text;strokeColor=none;fillColor=none;align=left;verticalAlign=top;spacingLeft=4;spacingRight=4;overflow=hidden;rotatable=0;points=[[0,0.5],[1,0.5]];portConstraint=eastwest;" vertex="1" parent="qBNeZzoZ65NPLC_zQhQ4-9">
          <mxGeometry y="52" width="310" height="26" as="geometry" />
        </mxCell>
        <mxCell id="qBNeZzoZ65NPLC_zQhQ4-14" value="- utgivelesdato: LocalDate" style="text;strokeColor=none;fillColor=none;align=left;verticalAlign=top;spacingLeft=4;spacingRight=4;overflow=hidden;rotatable=0;points=[[0,0.5],[1,0.5]];portConstraint=eastwest;" vertex="1" parent="qBNeZzoZ65NPLC_zQhQ4-9">
          <mxGeometry y="78" width="310" height="24" as="geometry" />
        </mxCell>
        <mxCell id="qBNeZzoZ65NPLC_zQhQ4-15" value="- episoder: ArrayList&lt;Episode&gt;" style="text;strokeColor=none;fillColor=none;align=left;verticalAlign=top;spacingLeft=4;spacingRight=4;overflow=hidden;rotatable=0;points=[[0,0.5],[1,0.5]];portConstraint=eastwest;" vertex="1" parent="qBNeZzoZ65NPLC_zQhQ4-9">
          <mxGeometry y="102" width="310" height="26" as="geometry" />
        </mxCell>
        <mxCell id="qBNeZzoZ65NPLC_zQhQ4-34" value="-gjennomSnittligSpilletid:double" style="text;strokeColor=none;fillColor=none;align=left;verticalAlign=top;spacingLeft=4;spacingRight=4;overflow=hidden;rotatable=0;points=[[0,0.5],[1,0.5]];portConstraint=eastwest;" vertex="1" parent="qBNeZzoZ65NPLC_zQhQ4-9">
          <mxGeometry y="128" width="310" height="26" as="geometry" />
        </mxCell>
        <mxCell id="qBNeZzoZ65NPLC_zQhQ4-32" value="-antallSesonger:int" style="text;strokeColor=none;fillColor=none;align=left;verticalAlign=top;spacingLeft=4;spacingRight=4;overflow=hidden;rotatable=0;points=[[0,0.5],[1,0.5]];portConstraint=eastwest;" vertex="1" parent="qBNeZzoZ65NPLC_zQhQ4-9">
          <mxGeometry y="154" width="310" height="26" as="geometry" />
        </mxCell>
        <mxCell id="qBNeZzoZ65NPLC_zQhQ4-11" value="" style="line;strokeWidth=1;fillColor=none;align=left;verticalAlign=middle;spacingTop=-1;spacingLeft=3;spacingRight=3;rotatable=0;labelPosition=right;points=[];portConstraint=eastwest;strokeColor=inherit;" vertex="1" parent="qBNeZzoZ65NPLC_zQhQ4-9">
          <mxGeometry y="180" width="310" height="8" as="geometry" />
        </mxCell>
        <mxCell id="qBNeZzoZ65NPLC_zQhQ4-12" value="+ leggTilEpisode(episoden: Episode):void" style="text;strokeColor=none;fillColor=none;align=left;verticalAlign=top;spacingLeft=4;spacingRight=4;overflow=hidden;rotatable=0;points=[[0,0.5],[1,0.5]];portConstraint=eastwest;" vertex="1" parent="qBNeZzoZ65NPLC_zQhQ4-9">
          <mxGeometry y="188" width="310" height="26" as="geometry" />
        </mxCell>
        <mxCell id="qBNeZzoZ65NPLC_zQhQ4-29" value="+hentEpisoderISesong(sesong int):ArrayList&lt;Episode&gt;" style="text;strokeColor=none;fillColor=none;align=left;verticalAlign=top;spacingLeft=4;spacingRight=4;overflow=hidden;rotatable=0;points=[[0,0.5],[1,0.5]];portConstraint=eastwest;" vertex="1" parent="qBNeZzoZ65NPLC_zQhQ4-9">
          <mxGeometry y="214" width="310" height="26" as="geometry" />
        </mxCell>
        <mxCell id="qBNeZzoZ65NPLC_zQhQ4-31" value="-oppdaterGjennomsnittligSpilletid():double" style="text;strokeColor=none;fillColor=none;align=left;verticalAlign=top;spacingLeft=4;spacingRight=4;overflow=hidden;rotatable=0;points=[[0,0.5],[1,0.5]];portConstraint=eastwest;" vertex="1" parent="qBNeZzoZ65NPLC_zQhQ4-9">
          <mxGeometry y="240" width="310" height="26" as="geometry" />
        </mxCell>
      </root>
    </mxGraphModel>
  </diagram>
</mxfile>
